<?xml version="1.0" standalone="no"?>
<!DOCTYPE svg PUBLIC "-//W3C//DTD SVG 20010904//EN"
 "http://www.w3.org/TR/2001/REC-SVG-20010904/DTD/svg10.dtd">
<svg version="1.0" xmlns="http://www.w3.org/2000/svg"
 width="812.000000pt" height="812.000000pt" viewBox="0 0 812.000000 812.000000"
 preserveAspectRatio="xMidYMid meet">
<metadata>
Created by potrace 1.11, written by Peter Selinger 2001-2013
</metadata>
<g transform="translate(0.000000,812.000000) scale(0.100000,-0.100000)"
fill="#000000" stroke="none">
<path d="M2790 4865 l0 -2042 345 0 345 0 0 868 0 869 808 0 807 0 -2 287 c-1
159 -2 297 -2 308 -1 20 -7 20 -803 20 l-803 0 0 545 0 545 938 0 c931 0 937
0 938 20 1 25 1 584 0 607 -1 16 -84 17 -1286 16 l-1285 0 0 -2043z"/>
<path d="M2790 1500 l0 -280 1285 0 c1217 0 1285 1 1286 18 1 21 1 524 0 535
-1 4 -579 7 -1286 7 l-1285 0 0 -280z"/>
</g>
</svg>
